<?xml version="1.0" encoding="UTF-8" standalone="no"?>
<!DOCTYPE svg PUBLIC "-//W3C//DTD SVG 1.1//EN"
 "http://www.w3.org/Graphics/SVG/1.1/DTD/svg11.dtd">
<!-- Generated by graphviz version 2.43.0 (0)
 -->
<!-- Title: %3 Pages: 1 -->
<svg width="455pt" height="399pt"
 viewBox="0.00 0.00 454.54 399.00" xmlns="http://www.w3.org/2000/svg" xmlns:xlink="http://www.w3.org/1999/xlink">
<g id="graph0" class="graph" transform="scale(1 1) rotate(0) translate(4 395)">
<title>%3</title>
<polygon fill="white" stroke="transparent" points="-4,4 -4,-395 450.54,-395 450.54,4 -4,4"/>
<!-- Environment -->
<g id="node1" class="node">
<title>Environment</title>
<ellipse fill="none" stroke="black" cx="235.54" cy="-373" rx="71.49" ry="18"/>
<text text-anchor="middle" x="235.54" y="-369.3" font-family="Times,serif" font-size="14.00">Environment</text>
</g>
<!-- Autoencoder -->
<g id="node2" class="node">
<title>Autoencoder</title>
<ellipse fill="none" stroke="black" cx="69.54" cy="-286" rx="69.59" ry="18"/>
<text text-anchor="middle" x="69.54" y="-282.3" font-family="Times,serif" font-size="14.00">Autoencoder</text>
</g>
<!-- Environment&#45;&gt;Autoencoder -->
<g id="edge1" class="edge">
<title>Environment&#45;&gt;Autoencoder</title>
<path fill="none" stroke="black" d="M198.73,-357.52C184.43,-351.57 168.03,-344.36 153.54,-337 136.47,-328.32 118.13,-317.58 102.95,-308.28"/>
<polygon fill="black" stroke="black" points="104.76,-305.28 94.41,-302.99 101.07,-311.23 104.76,-305.28"/>
</g>
<!-- Sys Agent n -->
<g id="node4" class="node">
<title>Sys Agent n</title>
<ellipse fill="none" stroke="black" cx="167.54" cy="-91" rx="66.09" ry="18"/>
<text text-anchor="middle" x="167.54" y="-87.3" font-family="Times,serif" font-size="14.00">Sys Agent n</text>
</g>
<!-- Environment&#45;&gt;Sys Agent n -->
<g id="edge9" class="edge">
<title>Environment&#45;&gt;Sys Agent n</title>
<path fill="none" stroke="black" d="M219.58,-355.35C208.25,-342.43 193.81,-323.5 186.54,-304 163.08,-241.07 163.36,-160.63 165.49,-119.27"/>
<polygon fill="black" stroke="black" points="168.99,-119.35 166.09,-109.16 162,-118.93 168.99,-119.35"/>
</g>
<!-- Predictor -->
<g id="node5" class="node">
<title>Predictor</title>
<ellipse fill="none" stroke="black" cx="249.54" cy="-286" rx="53.89" ry="18"/>
<text text-anchor="middle" x="249.54" y="-282.3" font-family="Times,serif" font-size="14.00">Predictor</text>
</g>
<!-- Environment&#45;&gt;Predictor -->
<g id="edge4" class="edge">
<title>Environment&#45;&gt;Predictor</title>
<path fill="none" stroke="black" d="M234.48,-354.73C234.23,-345.03 234.5,-332.75 236.54,-322 237.06,-319.29 237.76,-316.51 238.58,-313.76"/>
<polygon fill="black" stroke="black" points="241.95,-314.71 241.88,-304.12 235.33,-312.44 241.95,-314.71"/>
<text text-anchor="middle" x="285.04" y="-325.8" font-family="Times,serif" font-size="14.00">at game start</text>
</g>
<!-- Utility Function -->
<g id="node6" class="node">
<title>Utility Function</title>
<ellipse fill="none" stroke="black" cx="347.54" cy="-232" rx="84.49" ry="18"/>
<text text-anchor="middle" x="347.54" y="-228.3" font-family="Times,serif" font-size="14.00">Utility Function</text>
</g>
<!-- Environment&#45;&gt;Utility Function -->
<g id="edge5" class="edge">
<title>Environment&#45;&gt;Utility Function</title>
<path fill="none" stroke="black" d="M293.84,-362.53C308.83,-357.35 323.54,-349.35 333.54,-337 350.87,-315.61 352.62,-283.25 351.15,-260.31"/>
<polygon fill="black" stroke="black" points="354.62,-259.86 350.25,-250.21 347.65,-260.48 354.62,-259.86"/>
</g>
<!-- Clusterer -->
<g id="node3" class="node">
<title>Clusterer</title>
<ellipse fill="none" stroke="black" cx="80.54" cy="-178" rx="54.69" ry="18"/>
<text text-anchor="middle" x="80.54" y="-174.3" font-family="Times,serif" font-size="14.00">Clusterer</text>
</g>
<!-- Autoencoder&#45;&gt;Clusterer -->
<g id="edge2" class="edge">
<title>Autoencoder&#45;&gt;Clusterer</title>
<path fill="none" stroke="black" d="M71.31,-267.97C73.03,-251.38 75.68,-225.88 77.7,-206.43"/>
<polygon fill="black" stroke="black" points="81.19,-206.65 78.74,-196.34 74.23,-205.93 81.19,-206.65"/>
</g>
<!-- Clusterer&#45;&gt;Sys Agent n -->
<g id="edge3" class="edge">
<title>Clusterer&#45;&gt;Sys Agent n</title>
<path fill="none" stroke="black" d="M97.32,-160.61C110.35,-147.88 128.62,-130.03 143.25,-115.74"/>
<polygon fill="black" stroke="black" points="145.82,-118.12 150.52,-108.63 140.93,-113.11 145.82,-118.12"/>
<text text-anchor="middle" x="139.04" y="-130.8" font-family="Times,serif" font-size="14.00"> &#160;n</text>
</g>
<!-- Actor -->
<g id="node9" class="node">
<title>Actor</title>
<ellipse fill="none" stroke="black" cx="315.54" cy="-18" rx="36" ry="18"/>
<text text-anchor="middle" x="315.54" y="-14.3" font-family="Times,serif" font-size="14.00">Actor</text>
</g>
<!-- Sys Agent n&#45;&gt;Actor -->
<g id="edge10" class="edge">
<title>Sys Agent n&#45;&gt;Actor</title>
<path fill="none" stroke="black" d="M198.93,-74.94C223.16,-63.32 256.63,-47.26 281.5,-35.33"/>
<polygon fill="black" stroke="black" points="283.07,-38.46 290.57,-30.98 280.04,-32.15 283.07,-38.46"/>
</g>
<!-- Probability -->
<g id="node8" class="node">
<title>Probability</title>
<ellipse fill="none" stroke="black" cx="257.54" cy="-178" rx="61.99" ry="18"/>
<text text-anchor="middle" x="257.54" y="-174.3" font-family="Times,serif" font-size="14.00">Probability</text>
</g>
<!-- Predictor&#45;&gt;Probability -->
<g id="edge7" class="edge">
<title>Predictor&#45;&gt;Probability</title>
<path fill="none" stroke="black" d="M250.83,-267.97C252.08,-251.38 254.01,-225.88 255.47,-206.43"/>
<polygon fill="black" stroke="black" points="258.97,-206.58 256.24,-196.34 251.99,-206.05 258.97,-206.58"/>
</g>
<!-- Goal -->
<g id="node7" class="node">
<title>Goal</title>
<ellipse fill="none" stroke="black" cx="315.54" cy="-91" rx="31.7" ry="18"/>
<text text-anchor="middle" x="315.54" y="-87.3" font-family="Times,serif" font-size="14.00">Goal</text>
</g>
<!-- Utility Function&#45;&gt;Goal -->
<g id="edge6" class="edge">
<title>Utility Function&#45;&gt;Goal</title>
<path fill="none" stroke="black" d="M343.62,-213.96C338.17,-190.3 328.27,-147.26 321.79,-119.15"/>
<polygon fill="black" stroke="black" points="325.15,-118.14 319.5,-109.18 318.33,-119.71 325.15,-118.14"/>
</g>
<!-- Goal&#45;&gt;Actor -->
<g id="edge12" class="edge">
<title>Goal&#45;&gt;Actor</title>
<path fill="none" stroke="black" d="M315.54,-72.81C315.54,-64.79 315.54,-55.05 315.54,-46.07"/>
<polygon fill="black" stroke="black" points="319.04,-46.03 315.54,-36.03 312.04,-46.03 319.04,-46.03"/>
</g>
<!-- Probability&#45;&gt;Goal -->
<g id="edge8" class="edge">
<title>Probability&#45;&gt;Goal</title>
<path fill="none" stroke="black" d="M269,-160.21C277.45,-147.82 289.08,-130.78 298.6,-116.82"/>
<polygon fill="black" stroke="black" points="301.76,-118.41 304.5,-108.18 295.97,-114.47 301.76,-118.41"/>
</g>
<!-- Actor&#45;&gt;Environment -->
<g id="edge11" class="edge">
<title>Actor&#45;&gt;Environment</title>
<path fill="none" stroke="black" d="M350.31,-22.82C389.11,-29.24 446.54,-46.15 446.54,-90 446.54,-287 446.54,-287 446.54,-287 446.54,-345.24 376.53,-364.59 317.16,-370.52"/>
<polygon fill="black" stroke="black" points="316.63,-367.06 306.98,-371.43 317.25,-374.03 316.63,-367.06"/>
</g>
</g>
</svg>
