<?xml version="1.0" encoding="UTF-8" standalone="no"?>
<!DOCTYPE svg PUBLIC "-//W3C//DTD SVG 1.1//EN"
 "http://www.w3.org/Graphics/SVG/1.1/DTD/svg11.dtd">
<!-- Generated by graphviz version 2.43.0 (0)
 -->
<!-- Title: %3 Pages: 1 -->
<svg width="217pt" height="260pt"
 viewBox="0.00 0.00 216.84 260.00" xmlns="http://www.w3.org/2000/svg" xmlns:xlink="http://www.w3.org/1999/xlink">
<g id="graph0" class="graph" transform="scale(1 1) rotate(0) translate(4 256)">
<title>%3</title>
<polygon fill="white" stroke="transparent" points="-4,4 -4,-256 212.84,-256 212.84,4 -4,4"/>
<!-- Supervisor -->
<g id="node1" class="node">
<title>Supervisor</title>
<ellipse fill="none" stroke="black" cx="147.09" cy="-234" rx="61.99" ry="18"/>
<text text-anchor="middle" x="147.09" y="-230.3" font-family="Times,serif" font-size="14.00">Supervisor</text>
</g>
<!-- Moves Predictor -->
<g id="node2" class="node">
<title>Moves Predictor</title>
<ellipse fill="none" stroke="black" cx="87.09" cy="-162" rx="87.18" ry="18"/>
<text text-anchor="middle" x="87.09" y="-158.3" font-family="Times,serif" font-size="14.00">Moves Predictor</text>
</g>
<!-- Supervisor&#45;&gt;Moves Predictor -->
<g id="edge1" class="edge">
<title>Supervisor&#45;&gt;Moves Predictor</title>
<path fill="none" stroke="black" d="M132.87,-216.41C125.51,-207.82 116.37,-197.16 108.2,-187.63"/>
<polygon fill="black" stroke="black" points="110.79,-185.27 101.63,-179.96 105.48,-189.83 110.79,-185.27"/>
</g>
<!-- Self Predictor -->
<g id="node3" class="node">
<title>Self Predictor</title>
<ellipse fill="none" stroke="black" cx="84.09" cy="-90" rx="75.29" ry="18"/>
<text text-anchor="middle" x="84.09" y="-86.3" font-family="Times,serif" font-size="14.00">Self Predictor</text>
</g>
<!-- Moves Predictor&#45;&gt;Self Predictor -->
<g id="edge2" class="edge">
<title>Moves Predictor&#45;&gt;Self Predictor</title>
<path fill="none" stroke="black" d="M86.35,-143.7C86.02,-135.98 85.62,-126.71 85.25,-118.11"/>
<polygon fill="black" stroke="black" points="88.75,-117.95 84.83,-108.1 81.76,-118.25 88.75,-117.95"/>
</g>
<!-- Self Predictor&#45;&gt;Self Predictor -->
<g id="edge3" class="edge">
<title>Self Predictor&#45;&gt;Self Predictor</title>
<path fill="none" stroke="black" d="M135.01,-103.29C157.79,-104.55 177.49,-100.12 177.49,-90 177.49,-81.42 163.33,-76.93 145.14,-76.53"/>
<polygon fill="black" stroke="black" points="144.94,-73.03 135.01,-76.71 145.07,-80.03 144.94,-73.03"/>
</g>
<!-- Evaluator -->
<g id="node4" class="node">
<title>Evaluator</title>
<ellipse fill="none" stroke="black" cx="144.09" cy="-18" rx="55.79" ry="18"/>
<text text-anchor="middle" x="144.09" y="-14.3" font-family="Times,serif" font-size="14.00">Evaluator</text>
</g>
<!-- Self Predictor&#45;&gt;Evaluator -->
<g id="edge4" class="edge">
<title>Self Predictor&#45;&gt;Evaluator</title>
<path fill="none" stroke="black" d="M98.62,-72.05C105.99,-63.46 115.07,-52.86 123.18,-43.4"/>
<polygon fill="black" stroke="black" points="125.85,-45.66 129.7,-35.79 120.54,-41.1 125.85,-45.66"/>
</g>
<!-- Evaluator&#45;&gt;Supervisor -->
<g id="edge5" class="edge">
<title>Evaluator&#45;&gt;Supervisor</title>
<path fill="none" stroke="black" d="M161.82,-35.31C170.98,-44.97 181.23,-58.03 186.09,-72 201.88,-117.35 198.16,-134.41 183.09,-180 179.83,-189.88 174.15,-199.61 168.25,-207.99"/>
<polygon fill="black" stroke="black" points="165.31,-206.07 162.11,-216.17 170.91,-210.27 165.31,-206.07"/>
</g>
</g>
</svg>
