<?xml version="1.0" encoding="UTF-8" standalone="no"?>
<!DOCTYPE svg PUBLIC "-//W3C//DTD SVG 1.1//EN"
 "http://www.w3.org/Graphics/SVG/1.1/DTD/svg11.dtd">
<!-- Generated by graphviz version 2.43.0 (0)
 -->
<!-- Title: %3 Pages: 1 -->
<svg width="425pt" height="371pt"
 viewBox="0.00 0.00 425.29 371.00" xmlns="http://www.w3.org/2000/svg" xmlns:xlink="http://www.w3.org/1999/xlink">
<g id="graph0" class="graph" transform="scale(1 1) rotate(0) translate(4 367)">
<title>%3</title>
<polygon fill="white" stroke="transparent" points="-4,4 -4,-367 421.29,-367 421.29,4 -4,4"/>
<!-- Environment -->
<g id="node1" class="node">
<title>Environment</title>
<ellipse fill="none" stroke="black" cx="167.54" cy="-345" rx="71.49" ry="18"/>
<text text-anchor="middle" x="167.54" y="-341.3" font-family="Times,serif" font-size="14.00">Environment</text>
</g>
<!-- Autoencoder -->
<g id="node2" class="node">
<title>Autoencoder</title>
<ellipse fill="none" stroke="black" cx="69.54" cy="-272" rx="69.59" ry="18"/>
<text text-anchor="middle" x="69.54" y="-268.3" font-family="Times,serif" font-size="14.00">Autoencoder</text>
</g>
<!-- Environment&#45;&gt;Autoencoder -->
<g id="edge1" class="edge">
<title>Environment&#45;&gt;Autoencoder</title>
<path fill="none" stroke="black" d="M145.31,-327.89C131.99,-318.24 114.88,-305.84 100.29,-295.27"/>
<polygon fill="black" stroke="black" points="102.18,-292.33 92.03,-289.29 98.08,-297.99 102.18,-292.33"/>
</g>
<!-- Sys Agent n -->
<g id="node4" class="node">
<title>Sys Agent n</title>
<ellipse fill="none" stroke="black" cx="167.54" cy="-18" rx="66.09" ry="18"/>
<text text-anchor="middle" x="167.54" y="-14.3" font-family="Times,serif" font-size="14.00">Sys Agent n</text>
</g>
<!-- Environment&#45;&gt;Sys Agent n -->
<g id="edge10" class="edge">
<title>Environment&#45;&gt;Sys Agent n</title>
<path fill="none" stroke="black" d="M167.54,-326.78C167.54,-312.41 167.54,-291.37 167.54,-273 167.54,-273 167.54,-273 167.54,-90 167.54,-75.65 167.54,-59.67 167.54,-46.51"/>
<polygon fill="black" stroke="black" points="171.04,-46.22 167.54,-36.22 164.04,-46.22 171.04,-46.22"/>
</g>
<!-- Predict -->
<g id="node5" class="node">
<title>Predict</title>
<ellipse fill="none" stroke="black" cx="239.54" cy="-272" rx="44.39" ry="18"/>
<text text-anchor="middle" x="239.54" y="-268.3" font-family="Times,serif" font-size="14.00">Predict</text>
</g>
<!-- Environment&#45;&gt;Predict -->
<g id="edge4" class="edge">
<title>Environment&#45;&gt;Predict</title>
<path fill="none" stroke="black" d="M184.61,-327.17C193.98,-317.93 205.74,-306.34 215.97,-296.24"/>
<polygon fill="black" stroke="black" points="218.44,-298.73 223.1,-289.22 213.52,-293.75 218.44,-298.73"/>
</g>
<!-- Clusterer -->
<g id="node3" class="node">
<title>Clusterer</title>
<ellipse fill="none" stroke="black" cx="90.54" cy="-145" rx="54.69" ry="18"/>
<text text-anchor="middle" x="90.54" y="-141.3" font-family="Times,serif" font-size="14.00">Clusterer</text>
</g>
<!-- Autoencoder&#45;&gt;Clusterer -->
<g id="edge2" class="edge">
<title>Autoencoder&#45;&gt;Clusterer</title>
<path fill="none" stroke="black" d="M72.42,-253.88C75.9,-233.15 81.82,-197.95 85.94,-173.42"/>
<polygon fill="black" stroke="black" points="89.43,-173.75 87.64,-163.31 82.53,-172.59 89.43,-173.75"/>
</g>
<!-- Clusterer&#45;&gt;Sys Agent n -->
<g id="edge3" class="edge">
<title>Clusterer&#45;&gt;Sys Agent n</title>
<path fill="none" stroke="black" d="M100.93,-127.14C113.96,-105.99 136.44,-69.49 151.64,-44.81"/>
<polygon fill="black" stroke="black" points="154.81,-46.34 157.08,-35.99 148.85,-42.67 154.81,-46.34"/>
<text text-anchor="middle" x="144.04" y="-87.3" font-family="Times,serif" font-size="14.00"> &#160;n</text>
</g>
<!-- Utility -->
<g id="node6" class="node">
<title>Utility</title>
<ellipse fill="none" stroke="black" cx="235.54" cy="-199" rx="40.09" ry="18"/>
<text text-anchor="middle" x="235.54" y="-195.3" font-family="Times,serif" font-size="14.00">Utility</text>
</g>
<!-- Predict&#45;&gt;Utility -->
<g id="edge5" class="edge">
<title>Predict&#45;&gt;Utility</title>
<path fill="none" stroke="black" d="M238.58,-253.81C238.12,-245.79 237.57,-236.05 237.07,-227.07"/>
<polygon fill="black" stroke="black" points="240.56,-226.82 236.5,-217.03 233.57,-227.21 240.56,-226.82"/>
</g>
<!-- Probability -->
<g id="node8" class="node">
<title>Probability</title>
<ellipse fill="none" stroke="black" cx="355.54" cy="-199" rx="61.99" ry="18"/>
<text text-anchor="middle" x="355.54" y="-195.3" font-family="Times,serif" font-size="14.00">Probability</text>
</g>
<!-- Predict&#45;&gt;Probability -->
<g id="edge8" class="edge">
<title>Predict&#45;&gt;Probability</title>
<path fill="none" stroke="black" d="M263.02,-256.63C279.82,-246.35 302.7,-232.34 321.5,-220.83"/>
<polygon fill="black" stroke="black" points="323.39,-223.78 330.09,-215.58 319.74,-217.81 323.39,-223.78"/>
</g>
<!-- Goal -->
<g id="node7" class="node">
<title>Goal</title>
<ellipse fill="none" stroke="black" cx="235.54" cy="-91" rx="31.7" ry="18"/>
<text text-anchor="middle" x="235.54" y="-87.3" font-family="Times,serif" font-size="14.00">Goal</text>
</g>
<!-- Utility&#45;&gt;Goal -->
<g id="edge6" class="edge">
<title>Utility&#45;&gt;Goal</title>
<path fill="none" stroke="black" d="M235.54,-180.97C235.54,-164.38 235.54,-138.88 235.54,-119.43"/>
<polygon fill="black" stroke="black" points="239.04,-119.34 235.54,-109.34 232.04,-119.34 239.04,-119.34"/>
</g>
<!-- Goal&#45;&gt;Sys Agent n -->
<g id="edge7" class="edge">
<title>Goal&#45;&gt;Sys Agent n</title>
<path fill="none" stroke="black" d="M221.12,-74.94C212.21,-65.64 200.58,-53.5 190.44,-42.9"/>
<polygon fill="black" stroke="black" points="192.81,-40.32 183.37,-35.52 187.76,-45.17 192.81,-40.32"/>
</g>
<!-- Probability&#45;&gt;Goal -->
<g id="edge9" class="edge">
<title>Probability&#45;&gt;Goal</title>
<path fill="none" stroke="black" d="M337.06,-181.67C316.24,-163.28 282.34,-133.34 259.51,-113.17"/>
<polygon fill="black" stroke="black" points="261.74,-110.47 251.93,-106.47 257.11,-115.72 261.74,-110.47"/>
</g>
</g>
</svg>
