<?xml version="1.0" encoding="UTF-8" standalone="no"?>
<!DOCTYPE svg PUBLIC "-//W3C//DTD SVG 1.1//EN"
 "http://www.w3.org/Graphics/SVG/1.1/DTD/svg11.dtd">
<!-- Generated by graphviz version 2.43.0 (0)
 -->
<!-- Title: %3 Pages: 1 -->
<svg width="474pt" height="472pt"
 viewBox="0.00 0.00 473.54 472.00" xmlns="http://www.w3.org/2000/svg" xmlns:xlink="http://www.w3.org/1999/xlink">
<g id="graph0" class="graph" transform="scale(1 1) rotate(0) translate(4 468)">
<title>%3</title>
<polygon fill="white" stroke="transparent" points="-4,4 -4,-468 469.54,-468 469.54,4 -4,4"/>
<!-- Environment -->
<g id="node1" class="node">
<title>Environment</title>
<ellipse fill="none" stroke="black" cx="267.54" cy="-446" rx="71.49" ry="18"/>
<text text-anchor="middle" x="267.54" y="-442.3" font-family="Times,serif" font-size="14.00">Environment</text>
</g>
<!-- Autoencoder -->
<g id="node2" class="node">
<title>Autoencoder</title>
<ellipse fill="none" stroke="black" cx="69.54" cy="-359" rx="69.59" ry="18"/>
<text text-anchor="middle" x="69.54" y="-355.3" font-family="Times,serif" font-size="14.00">Autoencoder</text>
</g>
<!-- Environment&#45;&gt;Autoencoder -->
<g id="edge1" class="edge">
<title>Environment&#45;&gt;Autoencoder</title>
<path fill="none" stroke="black" d="M218.63,-432.76C198.12,-426.92 174.27,-419.19 153.54,-410 135.65,-402.06 116.82,-391.13 101.54,-381.51"/>
<polygon fill="black" stroke="black" points="103.29,-378.47 92.99,-376.02 99.52,-384.37 103.29,-378.47"/>
</g>
<!-- Sys Agent n -->
<g id="node4" class="node">
<title>Sys Agent n</title>
<ellipse fill="none" stroke="black" cx="167.54" cy="-164" rx="66.09" ry="18"/>
<text text-anchor="middle" x="167.54" y="-160.3" font-family="Times,serif" font-size="14.00">Sys Agent n</text>
</g>
<!-- Environment&#45;&gt;Sys Agent n -->
<g id="edge9" class="edge">
<title>Environment&#45;&gt;Sys Agent n</title>
<path fill="none" stroke="black" d="M239.25,-429.29C220.89,-417.47 198.26,-399.46 186.54,-377 155.25,-317.02 159,-234.42 163.67,-192.21"/>
<polygon fill="black" stroke="black" points="167.16,-192.5 164.89,-182.15 160.21,-191.66 167.16,-192.5"/>
</g>
<!-- Moves Predictor -->
<g id="node5" class="node">
<title>Moves Predictor</title>
<ellipse fill="none" stroke="black" cx="282.54" cy="-359" rx="87.18" ry="18"/>
<text text-anchor="middle" x="282.54" y="-355.3" font-family="Times,serif" font-size="14.00">Moves Predictor</text>
</g>
<!-- Environment&#45;&gt;Moves Predictor -->
<g id="edge4" class="edge">
<title>Environment&#45;&gt;Moves Predictor</title>
<path fill="none" stroke="black" d="M266.37,-427.71C266.09,-418 266.37,-405.72 268.54,-395 269.1,-392.27 269.86,-389.48 270.73,-386.72"/>
<polygon fill="black" stroke="black" points="274.12,-387.66 274.29,-377.07 267.55,-385.24 274.12,-387.66"/>
<text text-anchor="middle" x="326.04" y="-398.8" font-family="Times,serif" font-size="14.00">at start of game</text>
</g>
<!-- Utility Function -->
<g id="node6" class="node">
<title>Utility Function</title>
<ellipse fill="none" stroke="black" cx="366.54" cy="-305" rx="84.49" ry="18"/>
<text text-anchor="middle" x="366.54" y="-301.3" font-family="Times,serif" font-size="14.00">Utility Function</text>
</g>
<!-- Environment&#45;&gt;Utility Function -->
<g id="edge5" class="edge">
<title>Environment&#45;&gt;Utility Function</title>
<path fill="none" stroke="black" d="M334.55,-439.6C353.38,-434.62 371.88,-425.7 383.54,-410 400.25,-387.51 390.89,-354.72 380.67,-331.99"/>
<polygon fill="black" stroke="black" points="383.8,-330.42 376.31,-322.93 377.49,-333.46 383.8,-330.42"/>
</g>
<!-- Clusterer -->
<g id="node3" class="node">
<title>Clusterer</title>
<ellipse fill="none" stroke="black" cx="80.54" cy="-251" rx="54.69" ry="18"/>
<text text-anchor="middle" x="80.54" y="-247.3" font-family="Times,serif" font-size="14.00">Clusterer</text>
</g>
<!-- Autoencoder&#45;&gt;Clusterer -->
<g id="edge2" class="edge">
<title>Autoencoder&#45;&gt;Clusterer</title>
<path fill="none" stroke="black" d="M71.31,-340.97C73.03,-324.38 75.68,-298.88 77.7,-279.43"/>
<polygon fill="black" stroke="black" points="81.19,-279.65 78.74,-269.34 74.23,-278.93 81.19,-279.65"/>
</g>
<!-- Clusterer&#45;&gt;Sys Agent n -->
<g id="edge3" class="edge">
<title>Clusterer&#45;&gt;Sys Agent n</title>
<path fill="none" stroke="black" d="M97.32,-233.61C110.35,-220.88 128.62,-203.03 143.25,-188.74"/>
<polygon fill="black" stroke="black" points="145.82,-191.12 150.52,-181.63 140.93,-186.11 145.82,-191.12"/>
<text text-anchor="middle" x="139.04" y="-203.8" font-family="Times,serif" font-size="14.00"> &#160;n</text>
</g>
<!-- Actor -->
<g id="node9" class="node">
<title>Actor</title>
<ellipse fill="none" stroke="black" cx="312.54" cy="-18" rx="36" ry="18"/>
<text text-anchor="middle" x="312.54" y="-14.3" font-family="Times,serif" font-size="14.00">Actor</text>
</g>
<!-- Sys Agent n&#45;&gt;Actor -->
<g id="edge10" class="edge">
<title>Sys Agent n&#45;&gt;Actor</title>
<path fill="none" stroke="black" d="M176.36,-145.91C186.9,-126.61 205.98,-95.02 228.54,-73 243.41,-58.49 262.76,-45.74 279.14,-36.27"/>
<polygon fill="black" stroke="black" points="280.88,-39.31 287.89,-31.36 277.45,-33.2 280.88,-39.31"/>
</g>
<!-- Probability -->
<g id="node8" class="node">
<title>Probability</title>
<ellipse fill="none" stroke="black" cx="270.54" cy="-251" rx="61.99" ry="18"/>
<text text-anchor="middle" x="270.54" y="-247.3" font-family="Times,serif" font-size="14.00">Probability</text>
</g>
<!-- Moves Predictor&#45;&gt;Probability -->
<g id="edge7" class="edge">
<title>Moves Predictor&#45;&gt;Probability</title>
<path fill="none" stroke="black" d="M280.62,-340.97C278.74,-324.38 275.85,-298.88 273.65,-279.43"/>
<polygon fill="black" stroke="black" points="277.11,-278.88 272.51,-269.34 270.15,-279.67 277.11,-278.88"/>
</g>
<!-- Goal -->
<g id="node7" class="node">
<title>Goal</title>
<ellipse fill="none" stroke="black" cx="312.54" cy="-164" rx="31.7" ry="18"/>
<text text-anchor="middle" x="312.54" y="-160.3" font-family="Times,serif" font-size="14.00">Goal</text>
</g>
<!-- Utility Function&#45;&gt;Goal -->
<g id="edge6" class="edge">
<title>Utility Function&#45;&gt;Goal</title>
<path fill="none" stroke="black" d="M360.89,-286.96C356.01,-272.51 348.65,-251.27 341.54,-233 336.11,-219.03 329.6,-203.66 324.13,-191.06"/>
<polygon fill="black" stroke="black" points="327.22,-189.4 320,-181.64 320.81,-192.21 327.22,-189.4"/>
</g>
<!-- Self Predictor -->
<g id="node10" class="node">
<title>Self Predictor</title>
<ellipse fill="none" stroke="black" cx="312.54" cy="-91" rx="75.29" ry="18"/>
<text text-anchor="middle" x="312.54" y="-87.3" font-family="Times,serif" font-size="14.00">Self Predictor</text>
</g>
<!-- Goal&#45;&gt;Self Predictor -->
<g id="edge12" class="edge">
<title>Goal&#45;&gt;Self Predictor</title>
<path fill="none" stroke="black" d="M312.54,-145.81C312.54,-137.79 312.54,-128.05 312.54,-119.07"/>
<polygon fill="black" stroke="black" points="316.04,-119.03 312.54,-109.03 309.04,-119.03 316.04,-119.03"/>
</g>
<!-- Probability&#45;&gt;Goal -->
<g id="edge8" class="edge">
<title>Probability&#45;&gt;Goal</title>
<path fill="none" stroke="black" d="M279.04,-232.8C284.98,-220.78 293.02,-204.51 299.74,-190.92"/>
<polygon fill="black" stroke="black" points="303.05,-192.11 304.34,-181.6 296.78,-189.01 303.05,-192.11"/>
</g>
<!-- Actor&#45;&gt;Environment -->
<g id="edge11" class="edge">
<title>Actor&#45;&gt;Environment</title>
<path fill="none" stroke="black" d="M348.03,-20.37C393.23,-24.23 465.54,-38.46 465.54,-90 465.54,-360 465.54,-360 465.54,-360 465.54,-413.88 402.86,-434.04 348.04,-441.36"/>
<polygon fill="black" stroke="black" points="347.42,-437.91 337.91,-442.59 348.26,-444.86 347.42,-437.91"/>
</g>
<!-- Self Predictor&#45;&gt;Actor -->
<g id="edge13" class="edge">
<title>Self Predictor&#45;&gt;Actor</title>
<path fill="none" stroke="black" d="M312.54,-72.81C312.54,-64.79 312.54,-55.05 312.54,-46.07"/>
<polygon fill="black" stroke="black" points="316.04,-46.03 312.54,-36.03 309.04,-46.03 316.04,-46.03"/>
</g>
<!-- Self Predictor&#45;&gt;Self Predictor -->
<g id="edge14" class="edge">
<title>Self Predictor&#45;&gt;Self Predictor</title>
<path fill="none" stroke="black" d="M383,-97.43C396.44,-96.66 405.94,-94.52 405.94,-91 405.94,-88.45 400.92,-86.62 393.03,-85.51"/>
<polygon fill="black" stroke="black" points="393.29,-82.02 383,-84.57 392.63,-88.99 393.29,-82.02"/>
</g>
</g>
</svg>
