<?xml version="1.0" encoding="UTF-8" standalone="no"?>
<!DOCTYPE svg PUBLIC "-//W3C//DTD SVG 1.1//EN"
 "http://www.w3.org/Graphics/SVG/1.1/DTD/svg11.dtd">
<!-- Generated by graphviz version 2.43.0 (0)
 -->
<!-- Title: %3 Pages: 1 -->
<svg width="513pt" height="371pt"
 viewBox="0.00 0.00 513.29 371.00" xmlns="http://www.w3.org/2000/svg" xmlns:xlink="http://www.w3.org/1999/xlink">
<g id="graph0" class="graph" transform="scale(1 1) rotate(0) translate(4 367)">
<title>%3</title>
<polygon fill="white" stroke="transparent" points="-4,4 -4,-367 509.29,-367 509.29,4 -4,4"/>
<!-- Environment -->
<g id="node1" class="node">
<title>Environment</title>
<ellipse fill="none" stroke="black" cx="167.54" cy="-345" rx="71.49" ry="18"/>
<text text-anchor="middle" x="167.54" y="-341.3" font-family="Times,serif" font-size="14.00">Environment</text>
</g>
<!-- Autoencoder -->
<g id="node2" class="node">
<title>Autoencoder</title>
<ellipse fill="none" stroke="black" cx="69.54" cy="-272" rx="69.59" ry="18"/>
<text text-anchor="middle" x="69.54" y="-268.3" font-family="Times,serif" font-size="14.00">Autoencoder</text>
</g>
<!-- Environment&#45;&gt;Autoencoder -->
<g id="edge1" class="edge">
<title>Environment&#45;&gt;Autoencoder</title>
<path fill="none" stroke="black" d="M145.31,-327.89C131.99,-318.24 114.88,-305.84 100.29,-295.27"/>
<polygon fill="black" stroke="black" points="102.18,-292.33 92.03,-289.29 98.08,-297.99 102.18,-292.33"/>
</g>
<!-- Sys Agent n -->
<g id="node4" class="node">
<title>Sys Agent n</title>
<ellipse fill="none" stroke="black" cx="167.54" cy="-18" rx="66.09" ry="18"/>
<text text-anchor="middle" x="167.54" y="-14.3" font-family="Times,serif" font-size="14.00">Sys Agent n</text>
</g>
<!-- Environment&#45;&gt;Sys Agent n -->
<g id="edge10" class="edge">
<title>Environment&#45;&gt;Sys Agent n</title>
<path fill="none" stroke="black" d="M167.54,-326.78C167.54,-312.41 167.54,-291.37 167.54,-273 167.54,-273 167.54,-273 167.54,-90 167.54,-75.65 167.54,-59.67 167.54,-46.51"/>
<polygon fill="black" stroke="black" points="171.04,-46.22 167.54,-36.22 164.04,-46.22 171.04,-46.22"/>
</g>
<!-- Predictor -->
<g id="node5" class="node">
<title>Predictor</title>
<ellipse fill="none" stroke="black" cx="279.54" cy="-272" rx="53.89" ry="18"/>
<text text-anchor="middle" x="279.54" y="-268.3" font-family="Times,serif" font-size="14.00">Predictor</text>
</g>
<!-- Environment&#45;&gt;Predictor -->
<g id="edge4" class="edge">
<title>Environment&#45;&gt;Predictor</title>
<path fill="none" stroke="black" d="M192.68,-328.07C208.72,-317.9 229.66,-304.62 246.97,-293.65"/>
<polygon fill="black" stroke="black" points="249.07,-296.46 255.64,-288.15 245.32,-290.55 249.07,-296.46"/>
</g>
<!-- Clusterer -->
<g id="node3" class="node">
<title>Clusterer</title>
<ellipse fill="none" stroke="black" cx="90.54" cy="-145" rx="54.69" ry="18"/>
<text text-anchor="middle" x="90.54" y="-141.3" font-family="Times,serif" font-size="14.00">Clusterer</text>
</g>
<!-- Autoencoder&#45;&gt;Clusterer -->
<g id="edge2" class="edge">
<title>Autoencoder&#45;&gt;Clusterer</title>
<path fill="none" stroke="black" d="M72.42,-253.88C75.9,-233.15 81.82,-197.95 85.94,-173.42"/>
<polygon fill="black" stroke="black" points="89.43,-173.75 87.64,-163.31 82.53,-172.59 89.43,-173.75"/>
</g>
<!-- Clusterer&#45;&gt;Sys Agent n -->
<g id="edge3" class="edge">
<title>Clusterer&#45;&gt;Sys Agent n</title>
<path fill="none" stroke="black" d="M100.93,-127.14C113.96,-105.99 136.44,-69.49 151.64,-44.81"/>
<polygon fill="black" stroke="black" points="154.81,-46.34 157.08,-35.99 148.85,-42.67 154.81,-46.34"/>
<text text-anchor="middle" x="144.04" y="-87.3" font-family="Times,serif" font-size="14.00"> &#160;n</text>
</g>
<!-- Utility Function -->
<g id="node6" class="node">
<title>Utility Function</title>
<ellipse fill="none" stroke="black" cx="279.54" cy="-199" rx="84.49" ry="18"/>
<text text-anchor="middle" x="279.54" y="-195.3" font-family="Times,serif" font-size="14.00">Utility Function</text>
</g>
<!-- Predictor&#45;&gt;Utility Function -->
<g id="edge5" class="edge">
<title>Predictor&#45;&gt;Utility Function</title>
<path fill="none" stroke="black" d="M279.54,-253.81C279.54,-245.79 279.54,-236.05 279.54,-227.07"/>
<polygon fill="black" stroke="black" points="283.04,-227.03 279.54,-217.03 276.04,-227.03 283.04,-227.03"/>
</g>
<!-- Probability -->
<g id="node8" class="node">
<title>Probability</title>
<ellipse fill="none" stroke="black" cx="443.54" cy="-199" rx="61.99" ry="18"/>
<text text-anchor="middle" x="443.54" y="-195.3" font-family="Times,serif" font-size="14.00">Probability</text>
</g>
<!-- Predictor&#45;&gt;Probability -->
<g id="edge8" class="edge">
<title>Predictor&#45;&gt;Probability</title>
<path fill="none" stroke="black" d="M311.16,-257.31C336.84,-246.2 373.27,-230.42 401.41,-218.24"/>
<polygon fill="black" stroke="black" points="402.83,-221.44 410.61,-214.26 400.05,-215.02 402.83,-221.44"/>
</g>
<!-- Goal -->
<g id="node7" class="node">
<title>Goal</title>
<ellipse fill="none" stroke="black" cx="279.54" cy="-91" rx="31.7" ry="18"/>
<text text-anchor="middle" x="279.54" y="-87.3" font-family="Times,serif" font-size="14.00">Goal</text>
</g>
<!-- Utility Function&#45;&gt;Goal -->
<g id="edge6" class="edge">
<title>Utility Function&#45;&gt;Goal</title>
<path fill="none" stroke="black" d="M279.54,-180.97C279.54,-164.38 279.54,-138.88 279.54,-119.43"/>
<polygon fill="black" stroke="black" points="283.04,-119.34 279.54,-109.34 276.04,-119.34 283.04,-119.34"/>
</g>
<!-- Goal&#45;&gt;Sys Agent n -->
<g id="edge7" class="edge">
<title>Goal&#45;&gt;Sys Agent n</title>
<path fill="none" stroke="black" d="M259,-76.98C242.86,-66.75 220.05,-52.29 201.25,-40.37"/>
<polygon fill="black" stroke="black" points="202.98,-37.32 192.66,-34.92 199.23,-43.23 202.98,-37.32"/>
</g>
<!-- Probability&#45;&gt;Goal -->
<g id="edge9" class="edge">
<title>Probability&#45;&gt;Goal</title>
<path fill="none" stroke="black" d="M419.35,-182.36C389.83,-163.28 339.98,-131.06 308.46,-110.69"/>
<polygon fill="black" stroke="black" points="310,-107.52 299.7,-105.03 306.2,-113.4 310,-107.52"/>
</g>
</g>
</svg>
