<?xml version="1.0" encoding="UTF-8" standalone="no"?>
<!DOCTYPE svg PUBLIC "-//W3C//DTD SVG 1.1//EN"
 "http://www.w3.org/Graphics/SVG/1.1/DTD/svg11.dtd">
<!-- Generated by graphviz version 2.43.0 (0)
 -->
<!-- Title: %3 Pages: 1 -->
<svg width="542pt" height="364pt"
 viewBox="0.00 0.00 541.54 364.00" xmlns="http://www.w3.org/2000/svg" xmlns:xlink="http://www.w3.org/1999/xlink">
<g id="graph0" class="graph" transform="scale(1 1) rotate(0) translate(4 360)">
<title>%3</title>
<polygon fill="white" stroke="transparent" points="-4,4 -4,-360 537.54,-360 537.54,4 -4,4"/>
<!-- Environment -->
<g id="node1" class="node">
<title>Environment</title>
<ellipse fill="none" stroke="black" cx="223.54" cy="-338" rx="71.49" ry="18"/>
<text text-anchor="middle" x="223.54" y="-334.3" font-family="Times,serif" font-size="14.00">Environment</text>
</g>
<!-- Autoencoder -->
<g id="node2" class="node">
<title>Autoencoder</title>
<ellipse fill="none" stroke="black" cx="69.54" cy="-251" rx="69.59" ry="18"/>
<text text-anchor="middle" x="69.54" y="-247.3" font-family="Times,serif" font-size="14.00">Autoencoder</text>
</g>
<!-- Environment&#45;&gt;Autoencoder -->
<g id="edge1" class="edge">
<title>Environment&#45;&gt;Autoencoder</title>
<path fill="none" stroke="black" d="M191.93,-321.8C179.82,-315.83 165.94,-308.78 153.54,-302 137.02,-292.97 119.04,-282.37 103.97,-273.26"/>
<polygon fill="black" stroke="black" points="105.36,-270.01 95,-267.81 101.72,-276 105.36,-270.01"/>
</g>
<!-- Sys Agent n -->
<g id="node4" class="node">
<title>Sys Agent n</title>
<ellipse fill="none" stroke="black" cx="167.54" cy="-91" rx="66.09" ry="18"/>
<text text-anchor="middle" x="167.54" y="-87.3" font-family="Times,serif" font-size="14.00">Sys Agent n</text>
</g>
<!-- Environment&#45;&gt;Sys Agent n -->
<g id="edge9" class="edge">
<title>Environment&#45;&gt;Sys Agent n</title>
<path fill="none" stroke="black" d="M218.56,-319.74C211.02,-293.26 196.54,-240.96 186.54,-196 180.78,-170.06 175.46,-140.2 171.92,-119.15"/>
<polygon fill="black" stroke="black" points="175.33,-118.31 170.24,-109.01 168.43,-119.45 175.33,-118.31"/>
</g>
<!-- Predictor -->
<g id="node5" class="node">
<title>Predictor</title>
<ellipse fill="none" stroke="black" cx="279.54" cy="-251" rx="53.89" ry="18"/>
<text text-anchor="middle" x="279.54" y="-247.3" font-family="Times,serif" font-size="14.00">Predictor</text>
</g>
<!-- Environment&#45;&gt;Predictor -->
<g id="edge4" class="edge">
<title>Environment&#45;&gt;Predictor</title>
<path fill="none" stroke="black" d="M234.61,-320.21C242.66,-307.98 253.71,-291.21 262.83,-277.36"/>
<polygon fill="black" stroke="black" points="265.92,-279.03 268.5,-268.76 260.08,-275.18 265.92,-279.03"/>
<text text-anchor="middle" x="337.54" y="-290.8" font-family="Times,serif" font-size="14.00"> &#160;once, at start of game</text>
</g>
<!-- Clusterer -->
<g id="node3" class="node">
<title>Clusterer</title>
<ellipse fill="none" stroke="black" cx="80.54" cy="-178" rx="54.69" ry="18"/>
<text text-anchor="middle" x="80.54" y="-174.3" font-family="Times,serif" font-size="14.00">Clusterer</text>
</g>
<!-- Autoencoder&#45;&gt;Clusterer -->
<g id="edge2" class="edge">
<title>Autoencoder&#45;&gt;Clusterer</title>
<path fill="none" stroke="black" d="M72.21,-232.81C73.45,-224.79 74.96,-215.05 76.35,-206.07"/>
<polygon fill="black" stroke="black" points="79.83,-206.45 77.91,-196.03 72.92,-205.38 79.83,-206.45"/>
</g>
<!-- Clusterer&#45;&gt;Sys Agent n -->
<g id="edge3" class="edge">
<title>Clusterer&#45;&gt;Sys Agent n</title>
<path fill="none" stroke="black" d="M97.32,-160.61C110.35,-147.88 128.62,-130.03 143.25,-115.74"/>
<polygon fill="black" stroke="black" points="145.82,-118.12 150.52,-108.63 140.93,-113.11 145.82,-118.12"/>
<text text-anchor="middle" x="139.04" y="-130.8" font-family="Times,serif" font-size="14.00"> &#160;n</text>
</g>
<!-- Actor -->
<g id="node9" class="node">
<title>Actor</title>
<ellipse fill="none" stroke="black" cx="323.54" cy="-18" rx="36" ry="18"/>
<text text-anchor="middle" x="323.54" y="-14.3" font-family="Times,serif" font-size="14.00">Actor</text>
</g>
<!-- Sys Agent n&#45;&gt;Actor -->
<g id="edge10" class="edge">
<title>Sys Agent n&#45;&gt;Actor</title>
<path fill="none" stroke="black" d="M200.25,-75.12C226.03,-63.38 261.91,-47.05 288.32,-35.03"/>
<polygon fill="black" stroke="black" points="289.94,-38.14 297.59,-30.81 287.04,-31.77 289.94,-38.14"/>
</g>
<!-- Utility Function -->
<g id="node6" class="node">
<title>Utility Function</title>
<ellipse fill="none" stroke="black" cx="279.54" cy="-178" rx="84.49" ry="18"/>
<text text-anchor="middle" x="279.54" y="-174.3" font-family="Times,serif" font-size="14.00">Utility Function</text>
</g>
<!-- Predictor&#45;&gt;Utility Function -->
<g id="edge5" class="edge">
<title>Predictor&#45;&gt;Utility Function</title>
<path fill="none" stroke="black" d="M279.54,-232.81C279.54,-224.79 279.54,-215.05 279.54,-206.07"/>
<polygon fill="black" stroke="black" points="283.04,-206.03 279.54,-196.03 276.04,-206.03 283.04,-206.03"/>
</g>
<!-- Probability -->
<g id="node8" class="node">
<title>Probability</title>
<ellipse fill="none" stroke="black" cx="443.54" cy="-178" rx="61.99" ry="18"/>
<text text-anchor="middle" x="443.54" y="-174.3" font-family="Times,serif" font-size="14.00">Probability</text>
</g>
<!-- Predictor&#45;&gt;Probability -->
<g id="edge7" class="edge">
<title>Predictor&#45;&gt;Probability</title>
<path fill="none" stroke="black" d="M311.16,-236.31C336.84,-225.2 373.27,-209.42 401.41,-197.24"/>
<polygon fill="black" stroke="black" points="402.83,-200.44 410.61,-193.26 400.05,-194.02 402.83,-200.44"/>
</g>
<!-- Goal -->
<g id="node7" class="node">
<title>Goal</title>
<ellipse fill="none" stroke="black" cx="323.54" cy="-91" rx="31.7" ry="18"/>
<text text-anchor="middle" x="323.54" y="-87.3" font-family="Times,serif" font-size="14.00">Goal</text>
</g>
<!-- Utility Function&#45;&gt;Goal -->
<g id="edge6" class="edge">
<title>Utility Function&#45;&gt;Goal</title>
<path fill="none" stroke="black" d="M288.45,-159.8C294.73,-147.66 303.26,-131.19 310.33,-117.52"/>
<polygon fill="black" stroke="black" points="313.46,-119.09 314.95,-108.6 307.25,-115.87 313.46,-119.09"/>
</g>
<!-- Goal&#45;&gt;Actor -->
<g id="edge12" class="edge">
<title>Goal&#45;&gt;Actor</title>
<path fill="none" stroke="black" d="M323.54,-72.81C323.54,-64.79 323.54,-55.05 323.54,-46.07"/>
<polygon fill="black" stroke="black" points="327.04,-46.03 323.54,-36.03 320.04,-46.03 327.04,-46.03"/>
</g>
<!-- Probability&#45;&gt;Goal -->
<g id="edge8" class="edge">
<title>Probability&#45;&gt;Goal</title>
<path fill="none" stroke="black" d="M421.25,-161.21C401.36,-147.12 372.16,-126.43 350.86,-111.35"/>
<polygon fill="black" stroke="black" points="352.74,-108.39 342.55,-105.46 348.69,-114.1 352.74,-108.39"/>
</g>
<!-- Actor&#45;&gt;Environment -->
<g id="edge11" class="edge">
<title>Actor&#45;&gt;Environment</title>
<path fill="none" stroke="black" d="M357.75,-23.37C417.26,-31.93 533.54,-53.34 533.54,-90 533.54,-252 533.54,-252 533.54,-252 533.54,-300.07 393.13,-321.94 301.3,-331.1"/>
<polygon fill="black" stroke="black" points="300.81,-327.63 291.19,-332.08 301.48,-334.6 300.81,-327.63"/>
</g>
</g>
</svg>
