<?xml version="1.0" encoding="UTF-8" standalone="no"?>
<!DOCTYPE svg PUBLIC "-//W3C//DTD SVG 1.1//EN"
 "http://www.w3.org/Graphics/SVG/1.1/DTD/svg11.dtd">
<!-- Generated by graphviz version 2.43.0 (0)
 -->
<!-- Title: %3 Pages: 1 -->
<svg width="174pt" height="260pt"
 viewBox="0.00 0.00 174.44 260.00" xmlns="http://www.w3.org/2000/svg" xmlns:xlink="http://www.w3.org/1999/xlink">
<g id="graph0" class="graph" transform="scale(1 1) rotate(0) translate(4 256)">
<title>%3</title>
<polygon fill="white" stroke="transparent" points="-4,4 -4,-256 170.44,-256 170.44,4 -4,4"/>
<!-- Environment -->
<g id="node1" class="node">
<title>Environment</title>
<ellipse fill="none" stroke="black" cx="94.95" cy="-234" rx="71.49" ry="18"/>
<text text-anchor="middle" x="94.95" y="-230.3" font-family="Times,serif" font-size="14.00">Environment</text>
</g>
<!-- Predictor -->
<g id="node2" class="node">
<title>Predictor</title>
<ellipse fill="none" stroke="black" cx="53.95" cy="-162" rx="53.89" ry="18"/>
<text text-anchor="middle" x="53.95" y="-158.3" font-family="Times,serif" font-size="14.00">Predictor</text>
</g>
<!-- Environment&#45;&gt;Predictor -->
<g id="edge1" class="edge">
<title>Environment&#45;&gt;Predictor</title>
<path fill="none" stroke="black" d="M85.02,-216.05C80.19,-207.8 74.27,-197.7 68.9,-188.54"/>
<polygon fill="black" stroke="black" points="71.85,-186.65 63.78,-179.79 65.81,-190.19 71.85,-186.65"/>
</g>
<!-- Evaluator -->
<g id="node3" class="node">
<title>Evaluator</title>
<ellipse fill="none" stroke="black" cx="94.95" cy="-90" rx="55.79" ry="18"/>
<text text-anchor="middle" x="94.95" y="-86.3" font-family="Times,serif" font-size="14.00">Evaluator</text>
</g>
<!-- Predictor&#45;&gt;Evaluator -->
<g id="edge2" class="edge">
<title>Predictor&#45;&gt;Evaluator</title>
<path fill="none" stroke="black" d="M63.87,-144.05C68.7,-135.8 74.62,-125.7 79.99,-116.54"/>
<polygon fill="black" stroke="black" points="83.08,-118.19 85.11,-107.79 77.04,-114.65 83.08,-118.19"/>
</g>
<!-- Evaluator&#45;&gt;Environment -->
<g id="edge3" class="edge">
<title>Evaluator&#45;&gt;Environment</title>
<path fill="none" stroke="black" d="M104.08,-108.12C108.95,-118.24 114.45,-131.49 116.95,-144 120.07,-159.69 120.07,-164.31 116.95,-180 115.15,-188.99 111.81,-198.36 108.26,-206.68"/>
<polygon fill="black" stroke="black" points="105.03,-205.33 104.08,-215.88 111.4,-208.23 105.03,-205.33"/>
</g>
<!-- Supervisor -->
<g id="node4" class="node">
<title>Supervisor</title>
<ellipse fill="none" stroke="black" cx="94.95" cy="-18" rx="61.99" ry="18"/>
<text text-anchor="middle" x="94.95" y="-14.3" font-family="Times,serif" font-size="14.00">Supervisor</text>
</g>
<!-- Evaluator&#45;&gt;Supervisor -->
<g id="edge4" class="edge">
<title>Evaluator&#45;&gt;Supervisor</title>
<path fill="none" stroke="black" d="M94.95,-71.7C94.95,-63.98 94.95,-54.71 94.95,-46.11"/>
<polygon fill="black" stroke="black" points="98.45,-46.1 94.95,-36.1 91.45,-46.1 98.45,-46.1"/>
</g>
</g>
</svg>
