<?xml version="1.0" encoding="UTF-8" standalone="no"?>
<!DOCTYPE svg PUBLIC "-//W3C//DTD SVG 1.1//EN"
 "http://www.w3.org/Graphics/SVG/1.1/DTD/svg11.dtd">
<!-- Generated by graphviz version 2.43.0 (0)
 -->
<!-- Title: %3 Pages: 1 -->
<svg width="418pt" height="116pt"
 viewBox="0.00 0.00 417.94 116.00" xmlns="http://www.w3.org/2000/svg" xmlns:xlink="http://www.w3.org/1999/xlink">
<g id="graph0" class="graph" transform="scale(1 1) rotate(0) translate(4 112)">
<title>%3</title>
<polygon fill="white" stroke="transparent" points="-4,4 -4,-112 413.94,-112 413.94,4 -4,4"/>
<!-- Supervisor -->
<g id="node1" class="node">
<title>Supervisor</title>
<ellipse fill="none" stroke="black" cx="257.94" cy="-90" rx="61.99" ry="18"/>
<text text-anchor="middle" x="257.94" y="-86.3" font-family="Times,serif" font-size="14.00">Supervisor</text>
</g>
<!-- Environment 1 -->
<g id="node2" class="node">
<title>Environment 1</title>
<ellipse fill="none" stroke="black" cx="79.94" cy="-18" rx="79.89" ry="18"/>
<text text-anchor="middle" x="79.94" y="-14.3" font-family="Times,serif" font-size="14.00">Environment 1</text>
</g>
<!-- Supervisor&#45;&gt;Environment 1 -->
<g id="edge1" class="edge">
<title>Supervisor&#45;&gt;Environment 1</title>
<path fill="none" stroke="black" d="M222.78,-75.17C195.44,-64.42 157.25,-49.4 127.24,-37.6"/>
<polygon fill="black" stroke="black" points="128.39,-34.29 117.81,-33.89 125.83,-40.81 128.39,-34.29"/>
</g>
<!-- Environment 2 -->
<g id="node3" class="node">
<title>Environment 2</title>
<ellipse fill="none" stroke="black" cx="257.94" cy="-18" rx="79.89" ry="18"/>
<text text-anchor="middle" x="257.94" y="-14.3" font-family="Times,serif" font-size="14.00">Environment 2</text>
</g>
<!-- Supervisor&#45;&gt;Environment 2 -->
<g id="edge2" class="edge">
<title>Supervisor&#45;&gt;Environment 2</title>
<path fill="none" stroke="black" d="M257.94,-71.7C257.94,-63.98 257.94,-54.71 257.94,-46.11"/>
<polygon fill="black" stroke="black" points="261.44,-46.1 257.94,-36.1 254.44,-46.1 261.44,-46.1"/>
</g>
<!-- \.\.\. -->
<g id="node4" class="node">
<title>\.\.\.</title>
<ellipse fill="none" stroke="black" cx="382.94" cy="-18" rx="27" ry="18"/>
<text text-anchor="middle" x="382.94" y="-14.3" font-family="Times,serif" font-size="14.00">...</text>
</g>
<!-- Supervisor&#45;&gt;\.\.\. -->
<g id="edge3" class="edge">
<title>Supervisor&#45;&gt;\.\.\.</title>
<path fill="none" stroke="black" d="M285.07,-73.81C305.37,-62.44 333.09,-46.92 353.85,-35.29"/>
<polygon fill="black" stroke="black" points="355.83,-38.2 362.84,-30.26 352.41,-32.09 355.83,-38.2"/>
</g>
</g>
</svg>
