<?xml version="1.0" encoding="UTF-8" standalone="no"?>
<!DOCTYPE svg PUBLIC "-//W3C//DTD SVG 1.1//EN"
 "http://www.w3.org/Graphics/SVG/1.1/DTD/svg11.dtd">
<!-- Generated by graphviz version 2.43.0 (0)
 -->
<!-- Title: %3 Pages: 1 -->
<svg width="363pt" height="116pt"
 viewBox="0.00 0.00 363.29 116.00" xmlns="http://www.w3.org/2000/svg" xmlns:xlink="http://www.w3.org/1999/xlink">
<g id="graph0" class="graph" transform="scale(1 1) rotate(0) translate(4 112)">
<title>%3</title>
<polygon fill="white" stroke="transparent" points="-4,4 -4,-112 359.29,-112 359.29,4 -4,4"/>
<!-- Supervisor -->
<g id="node1" class="node">
<title>Supervisor</title>
<ellipse fill="none" stroke="black" cx="217.29" cy="-90" rx="61.99" ry="18"/>
<text text-anchor="middle" x="217.29" y="-86.3" font-family="Times,serif" font-size="14.00">Supervisor</text>
</g>
<!-- Sys Agent 1 -->
<g id="node2" class="node">
<title>Sys Agent 1</title>
<ellipse fill="none" stroke="black" cx="66.29" cy="-18" rx="66.09" ry="18"/>
<text text-anchor="middle" x="66.29" y="-14.3" font-family="Times,serif" font-size="14.00">Sys Agent 1</text>
</g>
<!-- Supervisor&#45;&gt;Sys Agent 1 -->
<g id="edge1" class="edge">
<title>Supervisor&#45;&gt;Sys Agent 1</title>
<path fill="none" stroke="black" d="M185.64,-74.33C162.94,-63.8 132.15,-49.53 107.53,-38.12"/>
<polygon fill="black" stroke="black" points="108.97,-34.93 98.43,-33.9 106.03,-41.28 108.97,-34.93"/>
</g>
<!-- Sys Agent 2 -->
<g id="node3" class="node">
<title>Sys Agent 2</title>
<ellipse fill="none" stroke="black" cx="217.29" cy="-18" rx="66.09" ry="18"/>
<text text-anchor="middle" x="217.29" y="-14.3" font-family="Times,serif" font-size="14.00">Sys Agent 2</text>
</g>
<!-- Supervisor&#45;&gt;Sys Agent 2 -->
<g id="edge2" class="edge">
<title>Supervisor&#45;&gt;Sys Agent 2</title>
<path fill="none" stroke="black" d="M217.29,-71.7C217.29,-63.98 217.29,-54.71 217.29,-46.11"/>
<polygon fill="black" stroke="black" points="220.79,-46.1 217.29,-36.1 213.79,-46.1 220.79,-46.1"/>
</g>
<!-- \.\.\. -->
<g id="node4" class="node">
<title>\.\.\.</title>
<ellipse fill="none" stroke="black" cx="328.29" cy="-18" rx="27" ry="18"/>
<text text-anchor="middle" x="328.29" y="-14.3" font-family="Times,serif" font-size="14.00">...</text>
</g>
<!-- Supervisor&#45;&gt;\.\.\. -->
<g id="edge3" class="edge">
<title>Supervisor&#45;&gt;\.\.\.</title>
<path fill="none" stroke="black" d="M241.93,-73.46C259.22,-62.56 282.38,-47.95 300.37,-36.61"/>
<polygon fill="black" stroke="black" points="302.65,-39.31 309.24,-31.02 298.91,-33.39 302.65,-39.31"/>
</g>
</g>
</svg>
